<?xml version="1.0" encoding="UTF-8" standalone="no"?>
<!-- Created with Inkscape (http://www.inkscape.org/) -->

<svg
   xmlns:dc="http://purl.org/dc/elements/1.1/"
   xmlns:cc="http://creativecommons.org/ns#"
   xmlns:rdf="http://www.w3.org/1999/02/22-rdf-syntax-ns#"
   xmlns:svg="http://www.w3.org/2000/svg"
   xmlns="http://www.w3.org/2000/svg"
   xmlns:sodipodi="http://sodipodi.sourceforge.net/DTD/sodipodi-0.dtd"
   xmlns:inkscape="http://www.inkscape.org/namespaces/inkscape"
   width="600"
   height="252"
   viewBox="0 0 600 252.00001"
   id="svg2"
   version="1.1"
   inkscape:version="0.91 r13725"
   sodipodi:docname="facio.svg">
  <defs
     id="defs4" />
  <sodipodi:namedview
     id="base"
     pagecolor="#ffffff"
     bordercolor="#666666"
     borderopacity="1.0"
     inkscape:pageopacity="0.0"
     inkscape:pageshadow="2"
     inkscape:zoom="0.52213799"
     inkscape:cx="-316.39572"
     inkscape:cy="-214.28808"
     inkscape:document-units="px"
     inkscape:current-layer="layer1"
     showgrid="false"
     inkscape:window-width="1920"
     inkscape:window-height="1025"
     inkscape:window-x="0"
     inkscape:window-y="27"
     inkscape:window-maximized="1"
     fit-margin-top="0"
     fit-margin-left="0"
     fit-margin-right="0"
     fit-margin-bottom="0"
     units="px" />
  <metadata
     id="metadata7">
    <rdf:RDF>
      <cc:Work
         rdf:about="">
        <dc:format>image/svg+xml</dc:format>
        <dc:type
           rdf:resource="http://purl.org/dc/dcmitype/StillImage" />
        <dc:title></dc:title>
      </cc:Work>
    </rdf:RDF>
  </metadata>
  <g
     inkscape:label="Layer 1"
     inkscape:groupmode="layer"
     id="layer1"
     transform="translate(-83.336757,-778.67941)">
    <path
       style="fill:#0055d4;fill-rule:evenodd;stroke:#000000;stroke-width:0.45666638px;stroke-linecap:butt;stroke-linejoin:miter;stroke-opacity:1"
       d="m 574.92504,1678.871 c 0,0 8.59896,34.3692 1.91503,74.3727 l 11.65353,-3.9064 c -8.47176,-20.9112 -2.10233,-43.7831 -0.24673,-70.4762 z"
       id="path4324"
       inkscape:connector-curvature="0"
       sodipodi:nodetypes="ccccc" />
    <path
       style="fill:#2a7fff;fill-rule:evenodd;stroke:#000000;stroke-width:0.45666638px;stroke-linecap:butt;stroke-linejoin:miter;stroke-opacity:1"
       d="m 292.05531,1748.2217 c -14.38577,37.4215 -25.56807,60.0386 -28.16052,84.235 -106.92269,24.4538 -29.37852,10.7936 -15.84934,-28.2158 11.08007,-31.9478 8.53476,-27.9726 20.2302,-59.0044 7.16665,-4.0612 16.63618,-8.9626 23.77966,2.9852 z"
       id="path4322"
       inkscape:connector-curvature="0"
       sodipodi:nodetypes="ccscc" />
    <path
       style="fill:#f4e3d7;fill-rule:evenodd;stroke:#000000;stroke-width:0.27582416px;stroke-linecap:butt;stroke-linejoin:miter;stroke-opacity:1"
       d="m 548.99046,1435.6615 c 0,0 -18.33455,30.2188 0,164.9457 5.13717,37.7491 12.03495,85.1661 10.09496,100.2734 -5.68585,44.2779 36.1379,4.7292 24.45449,-87.7503 0,0 -31.20594,-155.1788 -13.37398,-183.0413 17.83197,-27.8624 -21.17547,5.5725 -21.17547,5.5725 z"
       id="path4318"
       inkscape:connector-curvature="0"
       sodipodi:nodetypes="csscsc" />
    <path
       style="fill:#0055d4;fill-rule:evenodd;stroke:#000000;stroke-width:0.45666638px;stroke-linecap:butt;stroke-linejoin:miter;stroke-opacity:1"
       d="m 669.02194,1661.386 c 0,0 29.86476,19.0598 52.49838,52.715 l 5.7818,-10.8459 c -20.5243,-9.3703 -31.6141,-30.3635 -48.60884,-51.0307 z"
       id="path4324-5"
       inkscape:connector-curvature="0"
       sodipodi:nodetypes="ccccc"
       inkscape:transform-center-x="12.502918"
       inkscape:transform-center-y="-12.849987" />
    <path
       style="fill:#2a7fff;fill-rule:evenodd;stroke:#000000;stroke-width:0.45666638px;stroke-linecap:butt;stroke-linejoin:miter;stroke-opacity:1"
       d="m 677.52728,1647.4834 c 22.49474,33.1858 31.88288,54.7274 50.2608,70.6786 0.77908,74.9784 -5.13891,30.8358 -29.42638,-2.5542 -19.8909,-27.3457 -18.08234,-22.9856 -36.86981,-50.3129 0.76105,-8.2022 2.14823,-18.7744 16.03539,-17.8115 z"
       id="path4322-6"
       inkscape:connector-curvature="0"
       sodipodi:nodetypes="ccscc"
       inkscape:transform-center-x="19.901102"
       inkscape:transform-center-y="23.618679" />
    <path
       style="fill:#f4e3d7;fill-rule:evenodd;stroke:#000000;stroke-width:0.27582416px;stroke-linecap:butt;stroke-linejoin:miter;stroke-opacity:1"
       d="m 573.50943,1420.0585 c 0,0 9.81086,119.5898 43.57743,185.2539 32.67336,63.5383 128.02852,146.601 26.88316,-15.491 -15.76826,-49.0011 -76.47084,-150.1397 -41.48365,-180.9079 50.2217,-44.1656 -28.97694,11.145 -28.97694,11.145 z"
       id="path4320"
       inkscape:connector-curvature="0"
       sodipodi:nodetypes="cscsc" />
    <path
       style="fill:#501616;fill-rule:evenodd;stroke:#000000;stroke-width:0.27582416px;stroke-linecap:butt;stroke-linejoin:miter;stroke-opacity:1"
       d="m 502.18154,1262.9143 c 0,0 44.57993,123.7093 -40.12192,228.4721 -84.70184,104.7628 346.60893,71.3279 280.8535,-2.229 -65.75538,-73.5569 -98.07583,-160.4877 -108.10631,-190.5792 -10.03047,-30.0914 -132.62527,-35.6639 -132.62527,-35.6639 z"
       id="path4316"
       inkscape:connector-curvature="0"
       sodipodi:nodetypes="csssc" />
    <rect
       style="fill:#00b08d;fill-opacity:1;stroke:none;stroke-width:4.30000019;stroke-linejoin:round;stroke-miterlimit:3.9000001;stroke-dasharray:none;stroke-opacity:1"
       id="rect4198"
       width="796.3006"
       height="419.88837"
       x="-54.813572"
       y="739.88635" />
    <path
       style="fill:#e9afaf;fill-rule:evenodd;stroke:#000000;stroke-width:0.27582416px;stroke-linecap:butt;stroke-linejoin:miter;stroke-opacity:1"
       d="m 533.38749,1025.2559 c 58.05136,-11.8757 161.60221,-22.9756 180.54869,-6.6953 17.91648,17.5747 11.41795,76.6521 8.63008,150.7669 -1.48368,39.444 -1.91638,88.7388 2.94149,125.9404 -6.32281,18.7657 -31.66162,1.052 -31.66162,1.052 3.88057,-42.0284 4.86473,-87.7519 4.28405,-127.0369 -0.88038,-59.5591 -5.35752,-104.3193 -8.79133,-98.9679 0,0 -42.04927,122.138 -32.79932,184.2405 20.06096,120.3657 -57.8747,54.736 -100.30482,39.5646 -37.35812,-13.3577 -83.58735,-3.3435 -50.15242,-71.8851 30.69405,-45.0845 18.86607,-94.011 19.66443,-137.6171 -2.39976,-8.4377 -7.00109,-12.9513 -44.26201,123.6851 -8.54029,12.4223 -58.36756,-48.5885 -117.57361,-90.5195 1.84318,-14.3718 7.46675,-18.8506 18.68865,-10.8051 29.83784,32.7683 76.4936,83.9893 80.88124,74.307 9.35329,-20.6401 7.5552,-69.3478 29.38548,-122.3035 11.47181,-27.828 20.41602,-29.6132 40.52102,-33.7261 z"
       id="path4314"
       inkscape:connector-curvature="0"
       sodipodi:nodetypes="scccccccscccccsss" />
    <path
       style="fill:#f4e3d7;fill-opacity:1;fill-rule:evenodd;stroke:#a25300;stroke-width:0.27582416px;stroke-linecap:butt;stroke-linejoin:miter;stroke-opacity:1"
       d="m 626.67327,937.11767 c 0,0 -6.69859,60.68141 13.79121,83.53553 20.4898,22.8539 -29.55259,27.9763 -29.55259,27.9763 0,0 -37.82732,0.7882 -13.39717,-21.2779 24.43014,-22.0659 23.64206,-66.98579 19.30769,-79.20093 -4.33438,-12.2151 -4.33438,-13.3972 -4.33438,-13.3972 z"
       id="path4304"
       inkscape:connector-curvature="0" />
    <path
       sodipodi:type="spiral"
       style="fill:#ffe300;fill-opacity:1;fill-rule:evenodd;stroke:#958400;stroke-width:5;stroke-linecap:butt;stroke-linejoin:miter;stroke-miterlimit:4;stroke-dasharray:none;stroke-opacity:1"
       id="path4462"
       sodipodi:cx="1299.4904"
       sodipodi:cy="827.66797"
       sodipodi:expansion="1"
       sodipodi:revolution="1.04871"
       sodipodi:radius="212.96674"
       sodipodi:argument="-5.8611031"
       sodipodi:t0="0"
       d="m 1299.4904,827.66797 c 27.8648,12.51332 -3.1202,43.73486 -20.798,46.31317 -47.9057,6.98706 -76.5204,-46.89757 -71.8284,-87.9091 8.393,-73.36001 87.9847,-111.84051 155.0203,-97.34358 98.3774,21.27484 147.9163,129.52395 122.8587,222.13137 -5.6114,20.73868 -14.5644,40.53773 -26.2909,58.53315"
       transform="matrix(-0.0952162,-0.17207533,0.31615125,-0.12935484,404.74231,1165.2509)" />
    <path
       style="fill:#f4e3d7;fill-opacity:1;fill-rule:evenodd;stroke:#a25300;stroke-width:0.27582416px;stroke-linecap:butt;stroke-linejoin:miter;stroke-opacity:1"
       d="m 575.04209,813.06528 c -9.47324,10.0304 -97.23433,-62.49741 -39.07504,58.61829 52.2535,169.99273 55.54246,239.51863 130.10255,27.6543 14.70867,6.5973 25.70866,-67.67886 2.81269,-36.27297 4.53025,-33.98675 8.065,-70.61727 -19.16883,-61.14461 -38.45018,13.37399 -74.67137,11.14499 -74.67137,11.14499 z"
       id="path3341"
       inkscape:connector-curvature="0"
       sodipodi:nodetypes="ccccsc" />
    <path
       style="fill:none;fill-rule:evenodd;stroke:#000000;stroke-width:1.10329664;stroke-linecap:butt;stroke-linejoin:miter;stroke-miterlimit:4;stroke-dasharray:none;stroke-opacity:1"
       d="m 582.80315,865.47347 c 0,0 4.39513,-30.19658 42.1617,-10.63887 22.06593,11.42697 10.63892,-1.97025 10.63892,-1.97025"
       id="path3349"
       inkscape:connector-curvature="0"
       sodipodi:nodetypes="csc" />
    <path
       style="fill:#e9c6af;fill-rule:evenodd;stroke:#000000;stroke-width:0.27582416px;stroke-linecap:butt;stroke-linejoin:miter;stroke-opacity:0"
       d="m 593.86002,871.73027 c 0,0 47.69797,96.98034 35.87694,3.5941"
       id="path3351"
       inkscape:connector-curvature="0"
       sodipodi:nodetypes="cc" />
    <path
       style="fill:#deaa87;fill-rule:evenodd;stroke:#000000;stroke-width:0.27582416px;stroke-linecap:butt;stroke-linejoin:miter;stroke-opacity:0"
       d="m 593.78831,871.65857 c 0,0 37.73581,54.3133 35.76564,4.6649"
       id="path3353"
       inkscape:connector-curvature="0"
       sodipodi:nodetypes="cc" />
    <path
       style="fill:#aaccff;fill-rule:evenodd;stroke:#00004b;stroke-width:0.27582416px;stroke-linecap:butt;stroke-linejoin:miter;stroke-opacity:0.29245288"
       d="m 593.44208,871.77807 c 0,0 16.53829,-22.56235 31.9168,-3.1523 19.14595,24.1651 -31.9168,3.1523 -31.9168,3.1523 z"
       id="path3357"
       inkscape:connector-curvature="0"
       sodipodi:nodetypes="sss" />
    <path
       style="fill:#000000"
       id="path3361"
       sodipodi:type="arc"
       sodipodi:cx="613.34082"
       sodipodi:cy="870.20203"
       sodipodi:rx="5.3194666"
       sodipodi:ry="5.3194666"
       sodipodi:start="0"
       sodipodi:end="6.2202863"
       d="m 618.66029,870.20203 a 5.3194666,5.3194666 0 0 1 -5.23583,5.31881 5.3194666,5.3194666 0 0 1 -5.40048,-5.15155 5.3194666,5.3194666 0 0 1 5.06599,-5.48081 5.3194666,5.3194666 0 0 1 5.5598,4.97918"
       sodipodi:open="true" />
    <path
       style="fill:#ffffff"
       id="path3363"
       sodipodi:type="arc"
       sodipodi:cx="612.15875"
       sodipodi:cy="869.31555"
       sodipodi:rx="1.7731556"
       sodipodi:ry="1.7731556"
       sodipodi:start="0"
       sodipodi:end="6.2202836"
       sodipodi:open="true"
       d="m 613.93191,869.31555 a 1.7731556,1.7731556 0 0 1 -1.74528,1.77294 1.7731556,1.7731556 0 0 1 -1.80016,-1.71718 1.7731556,1.7731556 0 0 1 1.68866,-1.82694 1.7731556,1.7731556 0 0 1 1.85327,1.65972" />
    <path
       style="fill:#ff5555;fill-rule:evenodd;stroke:#000000;stroke-width:0.27582416px;stroke-linecap:butt;stroke-linejoin:miter;stroke-opacity:1"
       d="m 558.79409,963.55291 c 0,0 1.04967,13.90089 8.04379,4.78879 6.99411,-9.112 13.23213,-4.00649 13.23213,-4.00649 0,0 -8.17427,-9.10634 -21.27592,-0.7823 z"
       id="path4175"
       inkscape:connector-curvature="0"
       sodipodi:nodetypes="cscc" />
    <path
       style="fill:#ff5555;fill-rule:evenodd;stroke:#000000;stroke-width:0.27582416px;stroke-linecap:butt;stroke-linejoin:miter;stroke-opacity:1"
       d="m 557.69977,962.48681 c 0,0 4.52559,-9.27344 8.98358,-5.37274 4.458,3.90084 2.90985,3.08764 2.90985,3.08764 0,0 4.35129,-8.63734 10.20241,-1.9503 2.80052,3.6518 1.67855,9.8441 -1.93872,4.8155 -2.7496,-3.8225 -12.67717,0.2992 -20.56517,1.39 z"
       id="path4173"
       inkscape:connector-curvature="0"
       sodipodi:nodetypes="csccscc" />
    <path
       style="fill:none;fill-rule:evenodd;stroke:#a25300;stroke-width:0.27582416px;stroke-linecap:butt;stroke-linejoin:miter;stroke-opacity:1"
       d="m 530.67134,821.7515 c 0,0 23.76596,33.14423 43.20661,19.49897 11.61666,-8.15362 43.83145,-10.23325 43.83145,-10.23325"
       id="path4281-3"
       inkscape:connector-curvature="0"
       sodipodi:nodetypes="csc" />
    <path
       style="fill:none;fill-rule:evenodd;stroke:#a25300;stroke-width:0.27582416px;stroke-linecap:butt;stroke-linejoin:miter;stroke-opacity:1"
       d="m 537.94109,815.44818 c 0,0 3.54423,22.72776 31.19435,12.5695 19.29673,-7.08942 37.04241,-2.13393 51.53733,-2.3526"
       id="path4281"
       inkscape:connector-curvature="0"
       sodipodi:nodetypes="csc" />
    <path
       style="fill:#ffe6d5;fill-rule:evenodd;stroke:#000000;stroke-width:0.27582416px;stroke-linecap:butt;stroke-linejoin:miter;stroke-opacity:1"
       d="m 367.49415,1114.5206 c 5.54633,1.9643 -7.34798,-3.5423 -43.565,-10.8896 -5.36302,-1.0879 -13.93121,-3.9585 -23.16715,-7.4037 -7.36364,-2.7469 -15.10258,-5.9807 -22.07833,-8.7242 -15.86873,-18.7081 -10.21035,-26.8826 3.7131,-7.6745 6.69762,3.382 11.49951,8.5737 19.06736,10.8963 7.08559,2.1747 12.34142,5.4632 19.83237,4.5976 l -21.58626,-7.6033 c -4.69365,-2.5979 -12.31834,-7.0151 -18.16275,-10.3198 -11.50564,-9.2948 -0.44251,-23.0564 -0.44251,-23.0564 4.78795,-2.5463 -1.40891,17.6166 5.71349,22.0658 5.31969,2.6579 9.86774,7.249 15.76763,8.2608 7.76068,1.3308 13.90308,5.7787 21.27162,8.2887 -27.53891,-21.0773 -37.70804,-27.5387 -30.43421,-43.5444 7.44814,-16.3895 40.23383,-17.0842 8.54345,2.4535 -4.52786,2.7916 -0.63924,12.0983 0.5297,15.7027 3.39121,10.4565 15.21032,11.1711 25.1044,23.024 -10.17905,-40.4394 -4.57672,-44.3817 9.45682,-41.7675 38.18103,25.3754 16.97036,26.1619 -1.08355,9.5696 -17.39903,-0.01 0.39551,30.2333 4.62986,33.9711 7.40339,3.0732 10.42043,1.7218 16.2819,-8.946 -7.58837,-16.0866 13.24648,-11.5562 10.24293,-0.8414 -11.88033,16.4904 -10.37636,14.9855 7.27473,23.8292 5.65009,6.218 7.24497,10.6956 -6.9096,8.1115 z"
       id="path4354"
       inkscape:connector-curvature="0"
       sodipodi:nodetypes="cssccscccccscssscccccccc" />
    <path
       style="fill:#cccccc;fill-rule:evenodd;stroke:#000000;stroke-width:0.20134197px;stroke-linecap:butt;stroke-linejoin:miter;stroke-opacity:1"
       d="m 358.1069,1069.7313 c 13.62496,-4.4822 6.69319,8.4042 0.96664,3.0197 -21.30564,9.8512 -22.90405,-13.7762 -0.96664,-3.0197 z"
       id="path4356"
       inkscape:connector-curvature="0"
       sodipodi:nodetypes="ccc" />
    <path
       style="fill:#ffff00;fill-opacity:1;stroke:none;stroke-width:3.4000001;stroke-linejoin:round;stroke-miterlimit:4;stroke-dasharray:none;stroke-opacity:1"
       id="path4360"
       sodipodi:type="arc"
       sodipodi:cx="347.16339"
       sodipodi:cy="1071.2695"
       sodipodi:rx="3.8418369"
       sodipodi:ry="3.7433286"
       sodipodi:start="0"
       sodipodi:end="5.8444059"
       sodipodi:open="true"
       d="m 351.00523,1071.2695 a 3.8418369,3.7433286 0 0 1 -3.42125,3.7209 3.8418369,3.7433286 0 0 1 -4.17034,-2.9062 3.8418369,3.7433286 0 0 1 2.50816,-4.3571 3.8418369,3.7433286 0 0 1 4.71949,1.9521" />
    <path
       style="fill:#ff0000;fill-opacity:1;stroke:none;stroke-width:4.06024933;stroke-linejoin:round;stroke-miterlimit:4;stroke-dasharray:none;stroke-opacity:1"
       id="path4358"
       sodipodi:type="arc"
       sodipodi:cx="346.17685"
       sodipodi:cy="1070.9486"
       sodipodi:rx="3.4299028"
       sodipodi:ry="3.1632283"
       sodipodi:start="0"
       sodipodi:end="6.2202836"
       sodipodi:open="true"
       d="m 349.60675,1070.9486 a 3.4299028,3.1632283 0 0 1 -3.37597,3.1628 3.4299028,3.1632283 0 0 1 -3.48214,-3.0633 3.4299028,3.1632283 0 0 1 3.26646,-3.2592 3.4299028,3.1632283 0 0 1 3.58487,2.9609" />
    <path
       style="fill:#cccccc;fill-opacity:1;stroke:none;stroke-width:3.4000001;stroke-linejoin:round;stroke-miterlimit:4;stroke-dasharray:none;stroke-opacity:1"
       id="path4386"
       d="m -215.95573,1148.8716 c 1.28098,-1.781 2.65468,-3.4884 4.02623,-5.1989 1.67389,-1.9831 3.26164,-4.0348 4.75227,-6.1588 1.18912,-1.8073 2.52814,-3.5059 3.79026,-5.259 1.3313,-1.6882 2.56806,-3.4439 3.93997,-5.1002 1.28514,-1.6458 2.80984,-3.0787 4.06966,-4.7441 1.05724,-1.4675 1.92656,-3.0541 2.9908,-4.5154 1.12464,-1.5599 2.0669,-3.2551 2.78997,-5.0364 0.72892,-1.7388 1.20535,-3.5661 1.75495,-5.3657 1.05711,-3.0821 1.69996,-6.2748 2.64941,-9.3904 0.95413,-2.8036 1.42603,-5.7244 1.94153,-8.6298 0.32804,-1.7873 0.45919,-3.5988 0.51931,-5.4121 0.0411,-1.4363 0.15361,-2.845 -0.31829,-4.2179 -0.64893,-1.509 -1.56369,-2.8234 -2.63072,-4.0603 -0.94624,-1.3843 -2.15189,-2.4053 -3.56578,-3.2756 -2.18227,-1.1818 -4.38554,-2.329 -6.63031,-3.39 -3.00669,-1.2607 -5.90233,-2.7567 -8.78689,-4.2702 -2.9744,-1.5046 -5.95616,-2.9944 -9.0082,-4.3358 -1.50967,-0.6876 -3.11584,-1.1207 -4.64389,-1.7553 -1.83675,-0.5525 -3.46196,-1.5501 -5.12204,-2.4755 -2.03155,-1.2518 -4.21353,-2.2096 -6.32357,-3.3122 -1.58429,-0.8008 -2.84436,-2.0096 -4.09655,-3.2348 -1.90831,-1.7351 -3.55403,-3.6997 -5.03532,-5.8039 -1.34306,-1.9581 -2.52588,-4.0059 -3.58609,-6.128 -0.96448,-1.9804 -1.75794,-4.0196 -2.29977,-6.154 -0.77183,-3.3363 -1.08747,-6.7501 -1.28479,-10.1613 0.0524,-3.0334 0.43315,-6.0501 1.19906,-8.9845 0.56605,-2.5702 1.75196,-4.8956 3.07015,-7.1493 1.45591,-2.2428 3.03592,-4.3965 4.67634,-6.50656 1.91168,-2.5934 4.09745,-4.9295 6.47881,-7.0917 2.41429,-2.2277 4.99917,-4.2422 7.57136,-6.2791 2.15649,-1.694 4.28088,-3.4277 6.45933,-5.0936 1.79424,-1.3447 3.42385,-2.8863 5.215,-4.2353 2.32703,-1.7235 4.73069,-3.3402 7.05536,-5.0663 2.10838,-1.5045 4.13305,-3.1234 6.09175,-4.8172 1.12263,-1.073 2.41789,-1.957 3.54031,-3.0289 0.43124,-0.4118 1.39225,-1.4775 1.78851,-1.9107 1.56767,-1.6422 3.02724,-3.3749 4.40303,-5.1795 1.1511,-1.4535 2.29777,-2.9073 3.42328,-4.3806 1.04267,-1.2929 2.04104,-2.60313 2.9519,-3.99299 1.01733,-1.44024 1.67756,-3.06823 2.29926,-4.7051 0.63089,-1.49773 1.25901,-2.99652 1.65776,-4.57404 0.52426,-1.79885 0.7871,-3.64747 0.93784,-5.51003 0.12044,-1.90832 0.11796,-3.82135 0.12171,-5.73252 0.12068,-1.78704 0.34065,-3.56359 0.44715,-5.35205 0.09,-1.87118 0.0904,-3.74476 0.0979,-5.61754 0.008,-1.52625 -0.003,-3.05259 -0.008,-4.57875 -0.004,-1.3863 0.003,-2.77252 8.9e-4,-4.15882 -4.8e-4,-0.23067 -8.9e-4,-0.46133 -8.9e-4,-0.69191 0,0 4.40625,-2.24508 4.40625,-2.24508 l 0,0 c -4.7e-4,0.23102 -8.9e-4,0.46204 -8.9e-4,0.69306 -8.9e-4,1.38524 0.005,2.77039 0.004,4.15554 -0.003,1.52962 -0.008,3.05907 -0.006,4.5887 -0.007,1.88255 -0.0356,3.76538 -0.10427,5.64678 -0.075,1.78321 -0.27705,3.55114 -0.45118,5.32681 -0.002,1.92236 -0.004,3.84588 -0.10761,5.76602 -0.13147,1.88202 -0.36471,3.75933 -0.89771,5.5756 -0.3501,1.60862 -0.95421,3.1298 -1.62845,4.63064 -0.62,1.66131 -1.24296,3.3331 -2.25713,4.80453 -0.91288,1.39919 -1.85037,2.76043 -2.93661,4.03114 -1.1565,1.45111 -2.23847,2.96091 -3.43742,4.38031 -1.3822,1.8191 -2.81665,3.5928 -4.41354,5.2312 -0.58937,0.6481 -1.14154,1.3311 -1.75731,1.9542 -1.09206,1.1051 -2.42485,1.9496 -3.5401,3.0309 -1.94041,1.7317 -3.98855,3.3496 -6.10374,4.8628 -2.29958,1.7394 -4.70583,3.3304 -7.0169,5.0549 -1.82219,1.3188 -3.44905,2.8662 -5.23081,4.2347 -2.2033,1.6574 -4.33312,3.4081 -6.50908,5.1011 -2.55504,2.0473 -5.16554,4.0189 -7.57052,6.2484 -2.399,2.1199 -4.603,4.417 -6.49877,7.0048 -1.62707,2.1033 -3.2093,4.23436 -4.68707,6.44656 -1.34067,2.206 -2.54325,4.4959 -3.12938,7.0306 -0.82183,2.8849 -1.18401,5.8639 -1.29872,8.8592 0.18236,3.3776 0.45709,6.7661 1.27433,10.0593 0.54417,2.0966 1.33965,4.096 2.26968,6.052 1.04856,2.0997 2.19378,4.1415 3.52472,6.0784 1.46793,2.0842 3.10737,4.016 5.02795,5.7025 1.22502,1.1861 2.4715,2.3426 4.01171,3.1196 2.10912,1.1038 4.26493,2.1142 6.31247,3.3344 1.6556,0.9175 3.31263,1.8261 5.12801,2.3981 1.53801,0.5987 3.1175,1.0897 4.61239,1.8003 3.02598,1.3975 5.99451,2.9109 8.98317,4.3856 2.89175,1.4986 5.78952,2.987 8.79913,4.2397 2.26682,1.0719 4.50608,2.2085 6.70816,3.4061 1.44421,0.9068 2.67249,1.9863 3.64666,3.4021 1.10065,1.2867 2.0528,2.6505 2.73268,4.2111 0.21005,0.5739 0.3627,0.8813 0.42995,1.4932 0.10453,0.9512 -0.0867,1.9349 -0.0243,2.8885 -0.0657,1.8408 -0.19121,3.6813 -0.52638,5.4957 -0.54631,2.9282 -1.01228,5.881 -1.97761,8.7104 -0.37237,1.2055 -0.72084,2.2801 -1.0331,3.5027 -0.49974,1.9564 -0.80512,3.9659 -1.55058,5.8547 -0.54177,1.8066 -0.99281,3.6477 -1.71841,5.3924 -0.69508,1.8255 -1.63981,3.5512 -2.74489,5.1617 -1.10899,1.4284 -1.9435,3.0359 -2.99341,4.5078 -1.20345,1.7222 -2.7704,3.1247 -4.06132,4.7773 -1.38673,1.6371 -2.61297,3.3903 -3.95763,5.0591 -1.20051,1.7995 -2.64781,3.4362 -3.81127,5.2695 -1.47754,2.1367 -3.05044,4.2057 -4.73497,6.1831 -1.32758,1.7084 -2.73272,3.3559 -3.97365,5.1331 0,0 -4.5502,1.9908 -4.5502,1.9908 z"
       inkscape:connector-curvature="0" />
    <path
       sodipodi:type="spiral"
       style="fill:#ffe300;fill-opacity:1;fill-rule:evenodd;stroke:#958400;stroke-width:0.9999755;stroke-linecap:butt;stroke-linejoin:miter;stroke-miterlimit:4;stroke-dasharray:none;stroke-opacity:1"
       id="path4390-8"
       sodipodi:cx="590.43335"
       sodipodi:cy="403.87976"
       sodipodi:expansion="1"
       sodipodi:revolution="1.0487143"
       sodipodi:radius="38.872475"
       sodipodi:argument="-18.112352"
       sodipodi:t0="0"
       d="m 590.43335,403.87976 c 4.12776,3.7479 -3.01561,7.41322 -6.22926,6.86061 -8.70881,-1.49754 -10.62629,-12.46744 -7.49196,-19.31913 5.60657,-12.25608 21.59577,-14.43139 32.409,-8.12331 15.86885,9.25734 18.34206,30.84534 8.75467,45.49888 -2.14722,3.28183 -4.82126,6.2115 -7.87463,8.67119"
       transform="matrix(1.5815711,-0.36482689,-1.3529161,-0.78751777,274.15222,1369.6529)" />
    <path
       style="fill:#782121;fill-opacity:1;fill-rule:evenodd;stroke:#000000;stroke-width:0.93780231;stroke-linecap:butt;stroke-linejoin:round;stroke-miterlimit:4;stroke-dasharray:none;stroke-opacity:1"
       d="m 711.93779,810.68017 c 7.72379,41.5167 -102.04203,-10.65025 -165.54189,11.79887 -81.35743,20.40164 -101.33763,-29.09062 -52.60329,-84.53692 42.35565,-49.04994 65.51076,8.11977 88.86341,29.12101 7.07652,6.4868 23.98679,29.55203 26.60084,9.38318 -11.05682,-24.51018 7.38673,-8.84695 6.04841,0.29313 -6.273,14.23428 26.11376,3.29641 37.41731,2.42919 22.0801,-1.69401 59.21521,31.51154 59.21521,31.51154 z"
       id="path4269"
       inkscape:connector-curvature="0"
       sodipodi:nodetypes="ccccccsc" />
    <path
       style="fill:none;fill-rule:evenodd;stroke:#000000;stroke-width:1.10329664;stroke-linecap:butt;stroke-linejoin:miter;stroke-miterlimit:4;stroke-dasharray:none;stroke-opacity:1"
       d="m 557.39152,862.82962 c 0,0 -14.81324,-22.84976 -21.53689,-13.51145 -6.72364,9.3385 -5.15213,10.49662 -9.63457,5.26711"
       id="path4464"
       inkscape:connector-curvature="0"
       sodipodi:nodetypes="csc" />
    <path
       style="fill:#e9c6af;fill-rule:evenodd;stroke:#000000;stroke-width:0.21048123px;stroke-linecap:butt;stroke-linejoin:miter;stroke-opacity:0"
       d="m 559.32538,874.84577 c 5.10985,6.5338 5.58733,86.94224 -20.72905,3.6223"
       id="path3351-5"
       inkscape:connector-curvature="0"
       sodipodi:nodetypes="cc" />
    <path
       style="fill:#deaa87;fill-rule:evenodd;stroke:#000000;stroke-width:0.20664647px;stroke-linecap:butt;stroke-linejoin:miter;stroke-opacity:0"
       d="m 559.14513,875.03637 c 3.38455,1.7627 0.90604,65.8833 -20.0442,4.6721"
       id="path3353-9"
       inkscape:connector-curvature="0"
       sodipodi:nodetypes="cc" />
    <path
       style="fill:#aaccff;fill-rule:evenodd;stroke:#00004b;stroke-width:0.21444362px;stroke-linecap:butt;stroke-linejoin:miter;stroke-opacity:0.29245288"
       d="m 559.45187,875.15967 c 0,0 -9.98362,-22.59165 -19.26712,-3.1564 -11.55779,24.1965 19.26712,3.1564 19.26712,3.1564 z"
       id="path3357-4"
       inkscape:connector-curvature="0"
       sodipodi:nodetypes="sss" />
    <path
       style="fill:#000000"
       id="path3361-7"
       sodipodi:type="arc"
       sodipodi:cx="-547.4397"
       sodipodi:cy="873.58167"
       sodipodi:rx="3.2111878"
       sodipodi:ry="5.3263798"
       sodipodi:start="0"
       sodipodi:end="6.2202863"
       d="m -544.22851,873.58167 a 3.2111878,5.3263798 0 0 1 -3.16069,5.32572 3.2111878,5.3263798 0 0 1 -3.2601,-5.15824 3.2111878,5.3263798 0 0 1 3.05817,-5.48794 3.2111878,5.3263798 0 0 1 3.35627,4.98565"
       sodipodi:open="true"
       transform="scale(-1,1)" />
    <path
       style="fill:#ffffff"
       id="path3363-0"
       sodipodi:type="arc"
       sodipodi:cx="-547.73792"
       sodipodi:cy="873.48291"
       sodipodi:rx="1.4047549"
       sodipodi:ry="1.6451128"
       sodipodi:start="0"
       sodipodi:end="6.2202836"
       d="m -546.33316,873.48291 a 1.4047549,1.6451128 0 0 1 -1.38267,1.64491 1.4047549,1.6451128 0 0 1 -1.42615,-1.59318 1.4047549,1.6451128 0 0 1 1.33782,-1.69501 1.4047549,1.6451128 0 0 1 1.46822,1.53987"
       transform="scale(-1,1)"
       sodipodi:open="true" />
    <path
       style="fill:#80b3ff;fill-opacity:0.53809521;stroke:#020b47;stroke-opacity:1"
       id="path4252"
       ry="100.51018"
       rx="48.487324"
       cy="593.78845"
       cx="196.47385"
       d=""
       inkscape:connector-curvature="0" />
    <ellipse
       style="fill:#0066ff;fill-opacity:0.504717;stroke:#002660;stroke-width:0.59329784;stroke-linejoin:round;stroke-miterlimit:4;stroke-dasharray:none;stroke-opacity:1"
       id="path4171"
       ry="29.58498"
       rx="15.577394"
       cy="878.51831"
       cx="544.13104" />
    <path
       style="fill:#f4e3d7;fill-rule:evenodd;stroke:#a25300;stroke-width:0.27582416px;stroke-linecap:butt;stroke-linejoin:miter;stroke-opacity:1"
       d="m 562.84082,876.08057 c 0,0 -10.08273,28.1301 -27.75764,62.6343 -17.67492,34.50424 22.16239,-18.5603 32.37633,-14.678 24.80581,9.4289 8.41392,-12.5474 8.41392,-12.5474"
       id="path3347"
       inkscape:connector-curvature="0"
       sodipodi:nodetypes="cssc" />
    <path
       style="fill:#ffffff;fill-opacity:0.59523806;stroke:none;stroke-opacity:1"
       id="path4259"
       sodipodi:type="arc"
       sodipodi:cx="535.5094"
       sodipodi:cy="870.06006"
       sodipodi:rx="1.9503715"
       sodipodi:ry="8.0801096"
       sodipodi:start="6.2514341"
       sodipodi:end="5.8076566"
       d="m 537.45879,869.80355 a 1.9503715,8.0801096 0 0 1 -1.67202,8.25449 1.9503715,8.0801096 0 0 1 -2.16534,-5.97045 1.9503715,8.0801096 0 0 1 1.19254,-9.57655 1.9503715,8.0801096 0 0 1 2.42941,3.84988 l -1.73398,3.69914 z" />
    <path
       style="fill:#ffe5ca;fill-opacity:1;fill-rule:evenodd;stroke:#a25300;stroke-width:0.27582416px;stroke-linecap:butt;stroke-linejoin:miter;stroke-opacity:1"
       d="m 673.5611,869.36657 c 3.82647,-7.37858 7.68992,-6.92027 4.27219,4.6993 -2.09499,6.3545 -0.99689,-9.65243 -5.55691,11.0678"
       id="path4503"
       inkscape:connector-curvature="0"
       sodipodi:nodetypes="ccc" />
    <rect
       style="fill:#000000;fill-opacity:0;stroke:none;stroke-width:4.30000019;stroke-linejoin:round;stroke-miterlimit:3.9000001;stroke-dasharray:none;stroke-opacity:1"
       id="rect4172"
       width="654.99927"
       height="286.32278"
       x="36.414295"
       y="758.72064" />
    <rect
       style="fill:#165016;fill-opacity:0;stroke:none;stroke-width:4.30000019;stroke-linejoin:round;stroke-miterlimit:3.9000001;stroke-dasharray:none;stroke-opacity:1"
       id="rect4174"
       width="261.42514"
       height="202.05386"
       x="211.65536"
       y="1073.7715" />
    <path
       style="fill:#165016;fill-opacity:0;stroke:none;stroke-width:4.30000019;stroke-linejoin:round;stroke-miterlimit:3.9000001;stroke-dasharray:none;stroke-opacity:1"
       d="m -699.62626,378.7411 0,-677.50289 1091.18664,0 1091.18662,0 0,677.50289 0,677.5029 -1091.18662,0 -1091.18664,0 0,-677.5029 z m 1039.46918,633.2602 c 13.68987,-3.134 24.92062,-5.7731 24.95729,-5.8647 0.0364,-0.092 0.80573,-4.1437 1.70903,-9.00457 1.69668,-9.13034 7.32757,-27.06631 11.65564,-37.12696 l 2.47176,-5.74561 -0.49987,14.84282 c -0.27493,8.16355 -0.93194,17.40182 -1.45996,20.52944 -0.52792,3.12772 -0.7814,5.86521 -0.56316,6.08345 0.21823,0.21823 3.25421,-0.55407 6.74668,-1.71631 5.12499,-1.70549 6.22403,-2.41718 5.69744,-3.68945 -2.65792,-6.42292 -3.62701,-13.06723 -3.58191,-24.55873 0.0565,-14.46754 2.36011,-34.818 4.52132,-39.94912 2.05779,-4.88539 1.96145,-5.35404 -1.83706,-8.93653 l -3.33667,-3.14686 1.04062,-13.20647 c 1.36899,-17.37376 -0.0364,-36.98869 -4.33381,-60.49895 -4.31323,-23.59492 -6.68846,-38.44434 -6.21627,-38.86291 0.21029,-0.18654 5.38047,-0.63709 11.4892,-1.00127 l 11.10684,-0.66218 5.00059,14.66365 c 11.13556,32.65382 29.81099,63.77625 53.32451,88.86473 3.21524,3.43061 8.58116,10.10087 11.92424,14.8228 3.34308,4.72203 12.05208,16.54027 19.35341,26.26279 13.56155,18.05883 19.77772,27.74909 26.68356,41.59638 7.54139,15.12156 10.83612,18.77636 12.88069,14.28818 0.41991,-0.92169 0.93654,-10.22929 1.14807,-20.68361 l 0.38467,-19.00772 -2.64394,-2.75971 -2.64403,-2.75971 2.51562,-4.62196 2.51562,-4.62205 -7.24809,-4.73256 c -7.93928,-5.18388 -15.29452,-12.55272 -24.02056,-24.0651 -7.57367,-9.99199 -18.99881,-27.65533 -24.70008,-38.18636 -2.54761,-4.70556 -9.67656,-17.00499 -15.84218,-27.33205 -8.97827,-15.03788 -12.63334,-22.33087 -18.3574,-36.62824 -3.93086,-9.81848 -6.67123,-17.8541 -6.08968,-17.85697 3.37153,-0.0163 29.82373,-4.34655 40.98725,-6.70934 56.67851,-11.99587 84.81369,-31.06314 75.57945,-51.22036 -0.96507,-2.10673 -6.61597,-9.61518 -12.55751,-16.68544 -26.77175,-31.85767 -48.19482,-64.8168 -68.51464,-105.40872 -7.27107,-14.52504 -17.72903,-37.59282 -21.55752,-47.5506 -0.66506,-1.72974 -0.18099,-2.48916 2.98494,-4.68315 4.7451,-3.28832 9.01907,-11.77377 10.57153,-20.98829 1.38891,-8.24393 0.59391,-28.8103 -1.63012,-42.16892 -4.39185,-26.38021 -0.35202,-66.83905 11.71299,-117.30615 5.90409,-24.69631 19.16515,-69.90489 20.50512,-69.90489 2.34478,0 4.96688,26.22144 6.75099,67.51089 1.2602,29.16442 0.63824,101.24985 -1.07826,124.96696 -0.59084,8.16355 -1.14989,18.93656 -1.24229,23.94003 l -0.16806,9.09721 6.20506,3.05261 c 8.25529,4.06127 14.17959,4.85828 18.88744,2.541 5.6102,-2.7614 7.04622,-6.14488 6.03193,-14.21202 -3.42926,-27.27513 -3.64013,-97.53584 -0.48129,-160.39821 1.95791,-38.96186 1.55084,-77.87792 -0.93146,-89.05692 -1.92468,-8.66768 -5.46292,-16.77912 -8.87514,-20.34627 -1.38402,-1.44684 -4.69924,-3.44171 -7.36721,-4.43303 -9.84788,-3.65905 -18.02694,-4.43048 -46.23213,-4.36052 l -27.01728,0.067 -1.32226,-3.41863 c -4.09432,-10.58522 -4.08053,-11.53268 0.30969,-21.27285 5.68499,-12.6126 17.58213,-42.85871 25.82325,-65.65058 6.67534,-18.46135 7.12379,-19.37379 9.81101,-19.96401 3.53537,-0.7765 7.69385,-7.06049 10.42445,-15.75253 2.38203,-7.58254 3.52588,-23.59985 1.90198,-26.634014 -1.10765,-2.069721 -1.03411,-2.094217 6.33444,-2.110649 19.62135,-0.04376 35.70436,-7.621347 35.70436,-16.822277 0,-4.570679 -1.83659,-7.784982 -7.44631,-13.032197 -3.30382,-3.090342 -4.4946,-4.822671 -3.92866,-5.715462 0.44663,-0.704603 0.81866,-3.240159 0.8267,-5.634583 0.0144,-4.286674 -0.0967,-4.44101 -7.23927,-10.054814 -17.4475,-13.713108 -31.83115,-21.971098 -43.39093,-24.911834 -6.5814,-1.67426 -8.31418,-1.566147 -24.81489,1.548298 -11.53747,2.177652 -19.61197,2.408779 -21.10956,0.604246 -0.58088,-0.699958 -0.80027,-2.757221 -0.49479,-4.639779 0.85495,-5.268751 -4.47439,-14.2122965 -8.46903,-14.2122965 -2.79945,0 -3.06978,2.4880779 -0.96698,8.9014975 1.72215,5.252519 1.79703,6.300729 0.64705,9.053028 -1.63022,3.901689 -3.76357,3.986092 -8.67606,0.343262 -5.93387,-4.400293 -20.19313,-19.4991558 -32.82418,-34.756923 -12.91306,-15.598482 -17.95617,-20.347543 -26.45134,-24.908837 -4.98106,-2.674494 -6.70359,-3.090007 -12.94523,-3.122738 -6.29748,-0.03304 -8.03026,0.371023 -13.82882,3.22456 -16.30747,8.025072 -37.78321,36.56436656 -43.67495,58.039791 -4.13138,15.058931 -1.14337,29.203832 7.8936,37.368244 3.82974,3.459881 14.63435,9.059799 17.48034,9.059799 1.17383,0 1.10058,0.682932 -0.43676,4.069805 -2.20401,4.855479 -2.45634,13.123542 -0.515,16.87754 4.30615,8.327157 14.48813,12.939973 28.3112,12.825973 4.47678,-0.0369 8.39404,0.34286 8.70498,0.84396 0.31093,0.5011 -0.0125,3.13775 -0.7182,5.85922 -1.7167,6.61789 -1.62381,18.14324 0.20262,25.1574 2.76058,10.60143 7.80331,16.69594 14.22967,17.1978 1.86618,0.14574 3.07371,0.81775 3.2727,1.82138 0.17342,0.87474 -3.6408,9.77087 -8.47611,19.76917 -8.44796,17.46864 -9.87584,22.29284 -5.97802,20.19769 0.92945,-0.49963 5.96059,-4.83013 11.18019,-9.62335 5.2195,-4.79322 9.58568,-8.60449 9.70241,-8.46949 0.11673,0.13499 1.80604,5.73537 3.7539,12.44528 l 3.54159,12.19984 -1.99229,2.53272 c -2.12128,2.69678 -2.61377,5.14724 -1.03459,5.14724 0.52668,0 0.9576,1.01299 0.9576,2.2511 0,1.23811 0.48723,3.64882 1.08276,5.35712 0.93232,2.67458 1.45526,3.05135 3.76462,2.71241 2.65188,-0.38922 2.73174,-0.2487 7.15222,12.5979 2.45874,7.14533 6.11706,16.53348 8.12966,20.86254 l 3.65918,7.87105 -3.03636,0.48621 c -45.5891,7.29998 -59.26556,10.13475 -66.36196,13.75504 -8.66754,4.42188 -16.26821,15.92419 -23.73932,35.92534 -7.82686,20.9538 -12.48176,40.63794 -18.26892,77.25272 -3.62108,22.91034 -6.56704,35.64198 -8.64647,37.36771 -1.72072,1.4281 -5.17354,-0.43213 -14.02549,-7.55631 -7.89303,-6.35243 -36.39311,-35.16619 -54.27969,-54.87713 -12.38394,-13.64704 -16.16917,-16.37502 -22.17915,-15.98432 -5.20056,0.33808 -11.47454,-3.57194 -11.47454,-7.15107 0,-1.06668 1.80207,-4.70534 4.00459,-8.08591 3.79418,-5.82352 3.93925,-6.30504 2.76084,-9.16397 -0.68406,-1.65962 -1.3011,-4.52571 -1.37119,-6.36909 -0.12292,-3.23276 -0.25478,-3.34774 -3.71844,-3.24238 -2.40339,0.0731 -3.59101,-0.31175 -3.59101,-1.16368 0,-2.15702 -5.86493,-8.12121 -13.72873,-13.96107 -6.93219,-5.14802 -7.89148,-5.57291 -12.58214,-5.57291 -7.88488,0 -9.49359,1.81801 -9.92013,11.21078 -0.29966,6.59864 1.15489,17.93535 3.33319,25.97864 0.61671,2.27717 -0.72284,1.46123 -16.77374,-10.21716 -3.57836,-2.60357 -7.34095,-9.90119 -8.33568,-16.16725 -0.70433,-4.43681 -0.70119,-4.44107 8.123,-11.01336 6.03069,-4.49169 8.40626,-7.9016 6.82888,-9.80224 -3.87068,-4.66388 -17.98961,2.32558 -22.729851,11.25222 -0.987545,1.85972 -1.647993,5.32992 -1.677315,8.81319 -0.04185,4.96664 0.373416,6.35299 3.062667,10.22565 1.711061,2.46402 7.528489,8.01563 12.927619,12.33692 11.36211,9.09388 11.3861,9.11575 8.85898,8.07861 -1.05336,-0.4323 -5.79349,-2.14103 -10.53362,-3.79719 -8.180103,-2.85805 -18.60435,-8.65346 -20.27477,-11.27184 -0.423901,-0.66447 -0.991079,-5.29754 -1.260395,-10.2957 -0.399032,-7.40563 -0.779602,-9.14276 -2.056228,-9.38579 -2.303347,-0.43848 -5.615441,7.02947 -5.615441,12.66142 l 0,4.5958 -2.471368,-1.6193 c -5.545976,-3.63386 -6.818791,0.98075 -2.366855,8.58104 5.168614,8.82377 6.267165,9.61191 21.983384,15.77153 17.725073,6.94696 22.847473,8.49922 42.530473,12.88817 8.33094,1.85764 18.07454,4.24934 21.65245,5.31489 5.77238,1.71909 6.46658,2.17999 6.16171,4.09101 -0.28279,1.77266 1.32356,3.36994 9.08012,9.02887 13.60864,9.92841 28.99926,22.95705 58.20045,49.26851 41.91136,37.76379 49.03208,41.89789 52.12724,30.2635 9.49864,-35.70428 24.9256,-87.64493 30.74772,-103.52357 4.4515,-12.14057 6.72532,-16.9582 8.82755,-18.70287 1.23789,-1.02738 1.53647,-0.86788 1.91233,1.02166 1.17449,5.90488 2.31758,62.56685 1.49079,73.90107 -1.59709,21.8945 -6.37341,39.81895 -14.33165,53.78381 -20.24934,35.53244 -23.06823,58.26872 -8.35191,67.36391 3.13873,1.93983 3.30861,2.36588 5.29668,13.28495 3.24301,17.81145 4.27933,29.9879 4.26066,50.06371 -0.0517,55.8018 -16.18586,103.01865 -50.62321,148.15097 -9.09451,11.91898 -11.37135,17.16769 -11.33605,26.13246 0.0199,5.06016 0.54061,8.13693 1.76238,10.41411 8.13698,15.16601 36.03947,25.81128 78.35865,29.89526 l 12.15962,1.17344 0.61229,5.35318 c 0.98049,8.57321 6.92566,55.43621 9.53598,75.16787 3.08635,23.33071 5.27294,45.21429 5.27294,52.77302 0,8.24304 -11.79248,44.60766 -17.12641,52.81296 -4.71887,7.25929 -15.59138,17.45189 -26.7121,25.04169 -4.87476,3.327 -8.62349,6.4371 -8.33046,6.9112 0.6662,1.0781 1.31929,0.9545 31.57355,-5.9714 z M -295.80661,372.03614 c 2.11314,-1.48011 15.82689,-18.90601 23.01341,-29.24287 4.32067,-6.21471 7.8094,-15.99215 10.4568,-29.30602 3.01105,-15.14258 1.78731,-16.25596 -38.53553,-35.06057 -8.89241,-4.14699 -11.4828,-6.00764 -15.57997,-11.19095 -5.46214,-6.91013 -7.8755,-14.00475 -7.89574,-23.21132 -0.0351,-15.95845 6.01568,-23.32299 41.17137,-50.11084 11.45954,-8.7319 21.77136,-20.70212 24.91842,-28.92591 1.58454,-4.14067 2.13285,-8.40754 2.62997,-20.46649 0.34543,-8.37936 0.3169,-15.2352 -0.0634,-15.2352 -0.38032,0 -1.45897,0.41075 -2.39701,0.91277 -1.4764,0.79014 -1.7952,2.92304 -2.37309,15.87687 -0.81477,18.26379 -2.18224,22.53526 -10.50894,32.82595 -6.09142,7.52819 -11.03231,11.93918 -27.01717,24.11971 -20.31856,15.48281 -29.06479,25.83134 -30.91345,36.57672 -1.99806,11.61382 1.33969,23.20147 9.32411,32.37057 3.94317,4.52824 5.4961,5.40397 33.67231,18.98861 19.06567,9.19216 19.77042,9.99154 18.81424,21.34053 -0.83347,9.89238 -5.50235,24.83469 -9.64109,30.85528 -1.86958,2.71968 -6.89515,9.46955 -11.16792,14.99969 -10.46987,13.55089 -11.71461,15.32162 -10.7703,15.32162 0.44535,0 1.7337,-0.64717 2.863,-1.43815 z"
       id="path4176"
       inkscape:connector-curvature="0"
       transform="translate(83.336757,775.56131)" />
    <path
       style="fill:#165016;fill-opacity:0;stroke:none;stroke-width:4.30000019;stroke-linejoin:round;stroke-miterlimit:3.9000001;stroke-dasharray:none;stroke-opacity:1"
       d="m -699.62626,378.7411 0,-677.50289 1091.18664,0 1091.18662,0 0,677.50289 0,677.5029 -1091.18662,0 -1091.18664,0 0,-677.5029 z m 1039.46918,633.2602 c 13.68987,-3.134 24.92062,-5.7731 24.95729,-5.8647 0.0364,-0.092 0.80573,-4.1437 1.70903,-9.00457 1.69668,-9.13034 7.32757,-27.06631 11.65564,-37.12696 l 2.47176,-5.74561 -0.49987,14.84282 c -0.27493,8.16355 -0.93194,17.40182 -1.45996,20.52944 -0.52792,3.12772 -0.7814,5.86521 -0.56316,6.08345 0.21823,0.21823 3.25421,-0.55407 6.74668,-1.71631 5.12499,-1.70549 6.22403,-2.41718 5.69744,-3.68945 -2.65792,-6.42292 -3.62701,-13.06723 -3.58191,-24.55873 0.0565,-14.46754 2.36011,-34.818 4.52132,-39.94912 2.05779,-4.88539 1.96145,-5.35404 -1.83706,-8.93653 l -3.33667,-3.14686 1.04062,-13.20647 c 1.36899,-17.37376 -0.0364,-36.98869 -4.33381,-60.49895 -4.31323,-23.59492 -6.68846,-38.44434 -6.21627,-38.86291 0.21029,-0.18654 5.38047,-0.63709 11.4892,-1.00127 l 11.10684,-0.66218 5.00059,14.66365 c 11.13556,32.65382 29.81099,63.77625 53.32451,88.86473 3.21524,3.43061 8.58116,10.10087 11.92424,14.8228 3.34308,4.72203 12.05208,16.54027 19.35341,26.26279 13.56155,18.05883 19.77772,27.74909 26.68356,41.59638 7.54139,15.12156 10.83612,18.77636 12.88069,14.28818 0.41991,-0.92169 0.93654,-10.22929 1.14807,-20.68361 l 0.38467,-19.00772 -2.64394,-2.75971 -2.64403,-2.75971 2.51562,-4.62196 2.51562,-4.62205 -7.24809,-4.73256 c -7.93928,-5.18388 -15.29452,-12.55272 -24.02056,-24.0651 -7.57367,-9.99199 -18.99881,-27.65533 -24.70008,-38.18636 -2.54761,-4.70556 -9.67656,-17.00499 -15.84218,-27.33205 -8.97827,-15.03788 -12.63334,-22.33087 -18.3574,-36.62824 -3.93086,-9.81848 -6.67123,-17.8541 -6.08968,-17.85697 3.37153,-0.0163 29.82373,-4.34655 40.98725,-6.70934 56.67851,-11.99587 84.81369,-31.06314 75.57945,-51.22036 -0.96507,-2.10673 -6.61597,-9.61518 -12.55751,-16.68544 -26.77175,-31.85767 -48.19482,-64.8168 -68.51464,-105.40872 -7.27107,-14.52504 -17.72903,-37.59282 -21.55752,-47.5506 -0.66506,-1.72974 -0.18099,-2.48916 2.98494,-4.68315 4.7451,-3.28832 9.01907,-11.77377 10.57153,-20.98829 1.38891,-8.24393 0.59391,-28.8103 -1.63012,-42.16892 -4.39185,-26.38021 -0.35202,-66.83905 11.71299,-117.30615 5.90409,-24.69631 19.16515,-69.90489 20.50512,-69.90489 2.34478,0 4.96688,26.22144 6.75099,67.51089 1.2602,29.16442 0.63824,101.24985 -1.07826,124.96696 -0.59084,8.16355 -1.14989,18.93656 -1.24229,23.94003 l -0.16806,9.09721 6.20506,3.05261 c 8.25529,4.06127 14.17959,4.85828 18.88744,2.541 5.6102,-2.7614 7.04622,-6.14488 6.03193,-14.21202 -3.42926,-27.27513 -3.64013,-97.53584 -0.48129,-160.39821 1.95791,-38.96186 1.55084,-77.87792 -0.93146,-89.05692 -1.92468,-8.66768 -5.46292,-16.77912 -8.87514,-20.34627 -1.38402,-1.44684 -4.69924,-3.44171 -7.36721,-4.43303 -9.84788,-3.65905 -18.02694,-4.43048 -46.23213,-4.36052 l -27.01728,0.067 -1.32226,-3.41863 c -4.09432,-10.58522 -4.08053,-11.53268 0.30969,-21.27285 5.68499,-12.6126 17.58213,-42.85871 25.82325,-65.65058 6.67534,-18.46135 7.12379,-19.37379 9.81101,-19.96401 3.53537,-0.7765 7.69385,-7.06049 10.42445,-15.75253 2.38203,-7.58254 3.52588,-23.59985 1.90198,-26.634014 -1.10765,-2.069721 -1.03411,-2.094217 6.33444,-2.110649 19.62135,-0.04376 35.70436,-7.621347 35.70436,-16.822277 0,-4.570679 -1.83659,-7.784982 -7.44631,-13.032197 -3.30382,-3.090342 -4.4946,-4.822671 -3.92866,-5.715462 0.44663,-0.704603 0.81866,-3.240159 0.8267,-5.634583 0.0144,-4.286674 -0.0967,-4.44101 -7.23927,-10.054814 -17.4475,-13.713108 -31.83115,-21.971098 -43.39093,-24.911834 -6.5814,-1.67426 -8.31418,-1.566147 -24.81489,1.548298 -11.53747,2.177652 -19.61197,2.408779 -21.10956,0.604246 -0.58088,-0.699958 -0.80027,-2.757221 -0.49479,-4.639779 0.85495,-5.268751 -4.47439,-14.2122965 -8.46903,-14.2122965 -2.79945,0 -3.06978,2.4880779 -0.96698,8.9014975 1.72215,5.252519 1.79703,6.300729 0.64705,9.053028 -1.63022,3.901689 -3.76357,3.986092 -8.67606,0.343262 -5.93387,-4.400293 -20.19313,-19.4991558 -32.82418,-34.756923 -12.91306,-15.598482 -17.95617,-20.347543 -26.45134,-24.908837 -4.98106,-2.674494 -6.70359,-3.090007 -12.94523,-3.122738 -6.29748,-0.03304 -8.03026,0.371023 -13.82882,3.22456 -16.30747,8.025072 -37.78321,36.56436656 -43.67495,58.039791 -4.13138,15.058931 -1.14337,29.203832 7.8936,37.368244 3.82974,3.459881 14.63435,9.059799 17.48034,9.059799 1.17383,0 1.10058,0.682932 -0.43676,4.069805 -2.20401,4.855479 -2.45634,13.123542 -0.515,16.87754 4.30615,8.327157 14.48813,12.939973 28.3112,12.825973 4.47678,-0.0369 8.39404,0.34286 8.70498,0.84396 0.31093,0.5011 -0.0125,3.13775 -0.7182,5.85922 -1.7167,6.61789 -1.62381,18.14324 0.20262,25.1574 2.76058,10.60143 7.80331,16.69594 14.22967,17.1978 1.86618,0.14574 3.07371,0.81775 3.2727,1.82138 0.17342,0.87474 -3.6408,9.77087 -8.47611,19.76917 -8.44796,17.46864 -9.87584,22.29284 -5.97802,20.19769 0.92945,-0.49963 5.96059,-4.83013 11.18019,-9.62335 5.2195,-4.79322 9.58568,-8.60449 9.70241,-8.46949 0.11673,0.13499 1.80604,5.73537 3.7539,12.44528 l 3.54159,12.19984 -1.99229,2.53272 c -2.12128,2.69678 -2.61377,5.14724 -1.03459,5.14724 0.52668,0 0.9576,1.01299 0.9576,2.2511 0,1.23811 0.48723,3.64882 1.08276,5.35712 0.93232,2.67458 1.45526,3.05135 3.76462,2.71241 2.65188,-0.38922 2.73174,-0.2487 7.15222,12.5979 2.45874,7.14533 6.11706,16.53348 8.12966,20.86254 l 3.65918,7.87105 -3.03636,0.48621 c -45.5891,7.29998 -59.26556,10.13475 -66.36196,13.75504 -8.66754,4.42188 -16.26821,15.92419 -23.73932,35.92534 -7.82686,20.9538 -12.48176,40.63794 -18.26892,77.25272 -3.62108,22.91034 -6.56704,35.64198 -8.64647,37.36771 -1.72072,1.4281 -5.17354,-0.43213 -14.02549,-7.55631 -7.89303,-6.35243 -36.39311,-35.16619 -54.27969,-54.87713 -12.38394,-13.64704 -16.16917,-16.37502 -22.17915,-15.98432 -5.20056,0.33808 -11.47454,-3.57194 -11.47454,-7.15107 0,-1.06668 1.80207,-4.70534 4.00459,-8.08591 3.79418,-5.82352 3.93925,-6.30504 2.76084,-9.16397 -0.68406,-1.65962 -1.3011,-4.52571 -1.37119,-6.36909 -0.12292,-3.23276 -0.25478,-3.34774 -3.71844,-3.24238 -2.40339,0.0731 -3.59101,-0.31175 -3.59101,-1.16368 0,-2.15702 -5.86493,-8.12121 -13.72873,-13.96107 -6.93219,-5.14802 -7.89148,-5.57291 -12.58214,-5.57291 -7.88488,0 -9.49359,1.81801 -9.92013,11.21078 -0.29966,6.59864 1.15489,17.93535 3.33319,25.97864 0.61671,2.27717 -0.72284,1.46123 -16.77374,-10.21716 -3.57836,-2.60357 -7.34095,-9.90119 -8.33568,-16.16725 -0.70433,-4.43681 -0.70119,-4.44107 8.123,-11.01336 6.03069,-4.49169 8.40626,-7.9016 6.82888,-9.80224 -3.87068,-4.66388 -17.98961,2.32558 -22.729851,11.25222 -0.987545,1.85972 -1.647993,5.32992 -1.677315,8.81319 -0.04185,4.96664 0.373416,6.35299 3.062667,10.22565 1.711061,2.46402 7.528489,8.01563 12.927619,12.33692 11.36211,9.09388 11.3861,9.11575 8.85898,8.07861 -1.05336,-0.4323 -5.79349,-2.14103 -10.53362,-3.79719 -8.180103,-2.85805 -18.60435,-8.65346 -20.27477,-11.27184 -0.423901,-0.66447 -0.991079,-5.29754 -1.260395,-10.2957 -0.399032,-7.40563 -0.779602,-9.14276 -2.056228,-9.38579 -2.303347,-0.43848 -5.615441,7.02947 -5.615441,12.66142 l 0,4.5958 -2.471368,-1.6193 c -5.545976,-3.63386 -6.818791,0.98075 -2.366855,8.58104 5.168614,8.82377 6.267165,9.61191 21.983384,15.77153 17.725073,6.94696 22.847473,8.49922 42.530473,12.88817 8.33094,1.85764 18.07454,4.24934 21.65245,5.31489 5.77238,1.71909 6.46658,2.17999 6.16171,4.09101 -0.28279,1.77266 1.32356,3.36994 9.08012,9.02887 13.60864,9.92841 28.99926,22.95705 58.20045,49.26851 41.91136,37.76379 49.03208,41.89789 52.12724,30.2635 9.49864,-35.70428 24.9256,-87.64493 30.74772,-103.52357 4.4515,-12.14057 6.72532,-16.9582 8.82755,-18.70287 1.23789,-1.02738 1.53647,-0.86788 1.91233,1.02166 1.17449,5.90488 2.31758,62.56685 1.49079,73.90107 -1.59709,21.8945 -6.37341,39.81895 -14.33165,53.78381 -20.24934,35.53244 -23.06823,58.26872 -8.35191,67.36391 3.13873,1.93983 3.30861,2.36588 5.29668,13.28495 3.24301,17.81145 4.27933,29.9879 4.26066,50.06371 -0.0517,55.8018 -16.18586,103.01865 -50.62321,148.15097 -9.09451,11.91898 -11.37135,17.16769 -11.33605,26.13246 0.0199,5.06016 0.54061,8.13693 1.76238,10.41411 8.13698,15.16601 36.03947,25.81128 78.35865,29.89526 l 12.15962,1.17344 0.61229,5.35318 c 0.98049,8.57321 6.92566,55.43621 9.53598,75.16787 3.08635,23.33071 5.27294,45.21429 5.27294,52.77302 0,8.24304 -11.79248,44.60766 -17.12641,52.81296 -4.71887,7.25929 -15.59138,17.45189 -26.7121,25.04169 -4.87476,3.327 -8.62349,6.4371 -8.33046,6.9112 0.6662,1.0781 1.31929,0.9545 31.57355,-5.9714 z M -295.80661,372.03614 c 2.11314,-1.48011 15.82689,-18.90601 23.01341,-29.24287 4.32067,-6.21471 7.8094,-15.99215 10.4568,-29.30602 3.01105,-15.14258 1.78731,-16.25596 -38.53553,-35.06057 -8.89241,-4.14699 -11.4828,-6.00764 -15.57997,-11.19095 -5.46214,-6.91013 -7.8755,-14.00475 -7.89574,-23.21132 -0.0351,-15.95845 6.01568,-23.32299 41.17137,-50.11084 11.45954,-8.7319 21.77136,-20.70212 24.91842,-28.92591 1.58454,-4.14067 2.13285,-8.40754 2.62997,-20.46649 0.34543,-8.37936 0.3169,-15.2352 -0.0634,-15.2352 -0.38032,0 -1.45897,0.41075 -2.39701,0.91277 -1.4764,0.79014 -1.7952,2.92304 -2.37309,15.87687 -0.81477,18.26379 -2.18224,22.53526 -10.50894,32.82595 -6.09142,7.52819 -11.03231,11.93918 -27.01717,24.11971 -20.31856,15.48281 -29.06479,25.83134 -30.91345,36.57672 -1.99806,11.61382 1.33969,23.20147 9.32411,32.37057 3.94317,4.52824 5.4961,5.40397 33.67231,18.98861 19.06567,9.19216 19.77042,9.99154 18.81424,21.34053 -0.83347,9.89238 -5.50235,24.83469 -9.64109,30.85528 -1.86958,2.71968 -6.89515,9.46955 -11.16792,14.99969 -10.46987,13.55089 -11.71461,15.32162 -10.7703,15.32162 0.44535,0 1.7337,-0.64717 2.863,-1.43815 z"
       id="path4178"
       inkscape:connector-curvature="0"
       transform="translate(83.336757,775.56131)" />
  </g>
</svg>
