<?xml version="1.0" encoding="UTF-8" standalone="no"?>
<!-- Created with Inkscape (http://www.inkscape.org/) -->

<svg
   xmlns:dc="http://purl.org/dc/elements/1.1/"
   xmlns:cc="http://creativecommons.org/ns#"
   xmlns:rdf="http://www.w3.org/1999/02/22-rdf-syntax-ns#"
   xmlns:svg="http://www.w3.org/2000/svg"
   xmlns="http://www.w3.org/2000/svg"
   xmlns:sodipodi="http://sodipodi.sourceforge.net/DTD/sodipodi-0.dtd"
   xmlns:inkscape="http://www.inkscape.org/namespaces/inkscape"
   width="100mm"
   height="100mm"
   viewBox="0 0 354.33071 354.33071"
   id="svg4187"
   version="1.1"
   inkscape:version="0.91 r13725"
   sodipodi:docname="back.svg">
  <defs
     id="defs4189" />
  <sodipodi:namedview
     id="base"
     pagecolor="#ffffff"
     bordercolor="#666666"
     borderopacity="1.0"
     inkscape:pageopacity="0.0"
     inkscape:pageshadow="2"
     inkscape:zoom="1.4142136"
     inkscape:cx="-33.387128"
     inkscape:cy="200.0846"
     inkscape:document-units="px"
     inkscape:current-layer="layer1"
     showgrid="false"
     showguides="true"
     inkscape:guide-bbox="true"
     inkscape:window-width="1920"
     inkscape:window-height="1025"
     inkscape:window-x="0"
     inkscape:window-y="27"
     inkscape:window-maximized="1">
    <sodipodi:guide
       position="175,185.5"
       orientation="1,0"
       id="guide4775" />
    <sodipodi:guide
       position="288.49956,302.64169"
       orientation="0,1"
       id="guide4819" />
    <sodipodi:guide
       position="497.80316,39.597979"
       orientation="0,1"
       id="guide4821" />
    <sodipodi:guide
       position="345.77521,302.64169"
       orientation="1,0"
       id="guide4825" />
    <sodipodi:guide
       position="7.0710676,202.23253"
       orientation="1,0"
       id="guide4827" />
    <sodipodi:guide
       position="82.999998,60.999999"
       orientation="0,1"
       id="guide4832" />
  </sodipodi:namedview>
  <metadata
     id="metadata4192">
    <rdf:RDF>
      <cc:Work
         rdf:about="">
        <dc:format>image/svg+xml</dc:format>
        <dc:type
           rdf:resource="http://purl.org/dc/dcmitype/StillImage" />
        <dc:title></dc:title>
      </cc:Work>
    </rdf:RDF>
  </metadata>
  <g
     inkscape:label="Layer 1"
     inkscape:groupmode="layer"
     id="layer1"
     transform="translate(0,-698.0315)">
    <path
       style="opacity:0.98000004;fill:#000000;fill-opacity:1;stroke:#000000;stroke-width:5.52574062;stroke-linejoin:round;stroke-miterlimit:4;stroke-dasharray:none;stroke-opacity:1"
       id="path4997"
       d="m 6.003886,1038.2519 c 0.5781287,-1.096 1.0215457,-2.2245 1.4323944,-3.348 0.3631647,-1.249 1.1193258,-2.4336 1.8194609,-3.6248 0.6549174,-1.2179 1.6064507,-2.3651 2.3999277,-3.5499 0.48668,-0.6165 0.922344,-1.2641 1.624118,-1.8105 0.575073,-0.4475 0.918675,-0.6006 1.627185,-0.9906 0.378104,-0.1776 0.74559,-0.3634 1.134312,-0.5327 0.856681,-0.3733 2.206957,-0.8948 3.106618,-1.2023 11.964391,-4.0892 13.630343,-5.0968 22.473774,-7.2499 4.884517,-1.068 9.985536,-1.7698 15.13433,-2.2028 3.846537,-0.2802 7.726512,-0.4194 11.585562,-0.1318 2.27455,0.1694 4.014369,0.4287 6.254616,0.7205 7.071284,1.065 13.888826,2.628 20.749756,4.0844 6.36163,1.427 12.66456,2.9457 18.96762,4.4614 4.94618,1.1361 9.88157,2.2695 14.93843,3.2219 4.36439,0.7972 8.65051,1.7341 13.03506,2.4929 3.37734,0.5846 4.50408,0.7394 7.95448,1.2671 6.33248,0.7845 12.69262,1.5227 19.11521,1.9997 2.0655,0.1531 9.18103,0.5802 11.1781,0.702 8.17992,0.4063 16.38235,0.8011 24.5987,0.7441 6.18623,-0.044 8.50664,-0.1918 14.76989,-0.4454 16.7576,-0.8171 33.06443,-3.2933 49.18176,-6.0111 2.58967,-0.464 5.17942,-0.928 7.76904,-1.3921 7.27982,-1.3047 8.42818,-1.547 15.79284,-2.7235 7.47577,-1.1942 15.00526,-2.2756 22.51662,-3.3875 8.41528,-1.2613 16.77859,-2.6447 24.94687,-4.3905 l -14.62577,6.7349 0,0 c -7.80035,1.3677 -15.67734,2.5713 -23.59761,3.6698 -7.38179,1.043 -14.77823,2.0618 -22.10198,3.2428 -7.31873,1.1802 -8.58995,1.4751 -15.84257,2.7653 -2.57678,0.4584 -5.1594,0.9051 -7.73912,1.3577 -6.58707,1.0813 -9.31648,1.5673 -15.98997,2.509 -11.04658,1.5589 -22.24436,2.7576 -33.54924,3.4189 -6.35159,0.2963 -8.96236,0.4732 -15.25045,0.5576 -8.36077,0.112 -16.70835,-0.2604 -25.0328,-0.6749 -3.03477,-0.1669 -8.34025,-0.4472 -11.39508,-0.6614 -6.58307,-0.4617 -13.12645,-1.1318 -19.61449,-1.9329 -3.39266,-0.4907 -4.84925,-0.6841 -8.18036,-1.2321 -4.49883,-0.7399 -8.9233,-1.6307 -13.4372,-2.3401 -2.316,-0.4051 -2.91059,-0.4814 -5.11096,-0.9675 -3.30371,-0.7299 -6.48467,-1.6468 -9.771354,-2.4023 -6.212007,-1.5428 -12.440021,-3.0672 -18.726162,-4.5003 -6.816211,-1.48 -13.657305,-2.9814 -20.773241,-3.8778 -2.516815,-0.2736 -3.660254,-0.4387 -6.196448,-0.5569 -3.821294,-0.1783 -7.64994,0.032 -11.429329,0.3655 -5.109099,0.5454 -10.192415,1.2739 -14.984261,2.4812 -6.591855,1.7491 -14.803444,4.8498 10.260104,-3.802 0.532336,-0.1838 -1.078433,0.3535 -1.606389,0.5417 -0.454324,0.1618 -0.895502,0.3364 -1.339448,0.5082 -0.369384,0.1429 -0.733619,0.2904 -1.10043,0.4356 -1.516343,0.6874 -2.698828,1.2287 -3.473612,2.3025 -0.901002,1.03 0.07075,-0.1215 -0.808802,1.0681 -0.590124,0.7981 -1.363504,1.5482 -1.719523,2.4043 4.954942,3.5088 -1.478751,2.296 -1.948412,3.4904 -0.38325,1.1146 51.574406,13.3742 51.400019,14.5101 4.843592,6.2715 -64.447855,-7.7988 -70.421786,-6.116 z"
       inkscape:connector-curvature="0"
       sodipodi:nodetypes="cccccccccccccccccccccccccccccsccscccccscccccccccccccscccc" />
  </g>
</svg>
