<?xml version="1.0" encoding="UTF-8" standalone="no"?>
<!-- Created with Inkscape (http://www.inkscape.org/) -->

<svg
   xmlns:dc="http://purl.org/dc/elements/1.1/"
   xmlns:cc="http://creativecommons.org/ns#"
   xmlns:rdf="http://www.w3.org/1999/02/22-rdf-syntax-ns#"
   xmlns:svg="http://www.w3.org/2000/svg"
   xmlns="http://www.w3.org/2000/svg"
   xmlns:sodipodi="http://sodipodi.sourceforge.net/DTD/sodipodi-0.dtd"
   xmlns:inkscape="http://www.inkscape.org/namespaces/inkscape"
   width="100mm"
   height="100mm"
   viewBox="0 0 354.33071 354.33071"
   id="svg4187"
   version="1.1"
   inkscape:version="0.91 r13725"
   sodipodi:docname="learning.svg">
  <defs
     id="defs4189" />
  <sodipodi:namedview
     id="base"
     pagecolor="#ffffff"
     bordercolor="#666666"
     borderopacity="1.0"
     inkscape:pageopacity="0.0"
     inkscape:pageshadow="2"
     inkscape:zoom="2"
     inkscape:cx="-417.14654"
     inkscape:cy="168.31917"
     inkscape:document-units="px"
     inkscape:current-layer="layer1"
     showgrid="false"
     showguides="true"
     inkscape:guide-bbox="true"
     inkscape:window-width="1920"
     inkscape:window-height="1025"
     inkscape:window-x="0"
     inkscape:window-y="27"
     inkscape:window-maximized="1">
    <sodipodi:guide
       position="175,185.5"
       orientation="1,0"
       id="guide4775" />
    <sodipodi:guide
       position="288.49956,302.64169"
       orientation="0,1"
       id="guide4819" />
    <sodipodi:guide
       position="497.80316,39.597979"
       orientation="0,1"
       id="guide4821" />
    <sodipodi:guide
       position="345.77521,302.64169"
       orientation="1,0"
       id="guide4825" />
    <sodipodi:guide
       position="7.0710676,202.23253"
       orientation="1,0"
       id="guide4827" />
    <sodipodi:guide
       position="82.999998,60.999999"
       orientation="0,1"
       id="guide4832" />
  </sodipodi:namedview>
  <metadata
     id="metadata4192">
    <rdf:RDF>
      <cc:Work
         rdf:about="">
        <dc:format>image/svg+xml</dc:format>
        <dc:type
           rdf:resource="http://purl.org/dc/dcmitype/StillImage" />
        <dc:title></dc:title>
      </cc:Work>
    </rdf:RDF>
  </metadata>
  <g
     inkscape:label="Layer 1"
     inkscape:groupmode="layer"
     id="layer1"
     transform="translate(0,-698.0315)">
    <path
       style="fill:#000000;fill-opacity:1;fill-rule:evenodd;stroke:#000000;stroke-width:4.07458067;stroke-linecap:butt;stroke-linejoin:miter;stroke-miterlimit:4;stroke-dasharray:none;stroke-opacity:1"
       d="m 87.161624,724.671 c -31.079139,0.0481 -57.498635,15.65407 -84.859326,27.53743 l 8,258.07007 c 70.540676,-40.00926 117.851982,-13.9899 166.836752,2.5 80.50775,-38.26855 122.3499,-15.62506 168.647,0 l 0,-263.07007 c -53.62379,-28.21662 -109.75662,-29.11971 -168.647,0 C 147.91891,733.68047 111.33429,724.63359 87.161624,724.671 Z m 18.722396,5.78154 c 21.88158,-0.0343 45.49488,5.50515 71.94554,20.18958 l 0,241.01904 C 133.48758,976.55338 94.736825,939.10616 30.882028,975.76167 L 27.710455,750.64212 C 52.47789,739.75489 77.750576,730.49661 105.88402,730.45254 Z m 156.64804,0.24026 c 24.74157,0.10338 48.90495,6.7718 72.51453,19.69343 l 0,240.94286 c -40.76754,-14.31084 -77.61253,-35.04988 -148.50472,0 l 0,-240.94286 c 25.92836,-13.33517 51.24862,-19.79682 75.99019,-19.69343 z"
       id="path4823"
       inkscape:connector-curvature="0"
       sodipodi:nodetypes="sccccccssccccssccccs" />
    <path
       style="opacity:0.98000004;fill:#00ff00;fill-opacity:1;stroke:none;stroke-width:7.34100008;stroke-linejoin:round;stroke-miterlimit:4;stroke-dasharray:none;stroke-opacity:1"
       d="m 98.191845,812.45139 0,-6.25688 7.247855,-3.38378 7.24784,-3.38378 -7.34488,-3.49912 -7.344895,-3.49912 0.38748,-5.65328 c 0.21312,-3.10931 0.53039,-5.79619 0.70506,-5.97086 0.17466,-0.17466 6.845775,2.83312 14.824685,6.68396 l 14.50712,7.00154 0.29948,2.56526 c 0.16471,1.41089 -0.0345,3.59846 -0.44266,4.86126 -0.67478,2.08758 -2.02591,2.95095 -14.88428,9.511 -7.77817,3.96826 -14.380785,7.22979 -14.672475,7.24785 -0.29168,0.0181 -0.53033,-2.78276 -0.53033,-6.22405 z"
       id="path4983"
       inkscape:connector-curvature="0" />
    <path
       style="opacity:0.98000004;fill:#00ff00;fill-opacity:1;stroke:none;stroke-width:7.34100008;stroke-linejoin:round;stroke-miterlimit:4;stroke-dasharray:none;stroke-opacity:1"
       d="m 64.586585,807.76692 c -7.37953,-3.62205 -14.03021,-7.26327 -14.77927,-8.09161 -1.039,-1.14895 -1.33716,-2.44751 -1.25747,-5.4765 0.0575,-2.18374 0.19303,-4.02101 0.30127,-4.08282 4.04865,-2.31181 29.12279,-13.78167 29.43827,-13.46618 0.24841,0.2484 0.56637,2.97777 0.70658,6.06526 l 0.25493,5.61363 -6.79298,3.17437 c -3.73614,1.74591 -6.77878,3.4106 -6.76142,3.69931 0.0174,0.28871 3.04024,1.93276 6.71751,3.65344 l 6.68596,3.12851 0,5.84537 c 0,3.21495 -0.24661,5.99778 -0.54802,6.18406 -0.30141,0.18629 -6.58582,-2.62479 -13.96536,-6.24684 z"
       id="path4985"
       inkscape:connector-curvature="0" />
    <path
       style="opacity:0.98000004;fill:#000000;fill-opacity:1;stroke:#000000;stroke-width:7.34100008;stroke-linejoin:round;stroke-miterlimit:4;stroke-dasharray:none;stroke-opacity:1"
       d="m 100.10167,812.06855 c 0,-5.0237 0.42525,-5.53758 7.41433,-8.95962 l 7.41433,-3.63026 -7.41433,-3.75712 c -6.84536,-3.46881 -7.41433,-4.14245 -7.41433,-8.77835 0,-6.0145 0.59828,-5.93015 17.32412,2.44244 9.91425,4.96287 10.96015,5.88033 10.96015,9.61422 0,3.66107 -1.1593,4.76754 -10.25305,9.78584 -5.63917,3.11192 -12.00313,6.32273 -14.14213,7.13512 -3.81594,1.4493 -3.88909,1.37685 -3.88909,-3.85227 z"
       id="path4987"
       inkscape:connector-curvature="0" />
    <path
       style="opacity:0.98000004;fill:#000000;fill-opacity:1;stroke:#000000;stroke-width:7.34100008;stroke-linejoin:round;stroke-miterlimit:4;stroke-dasharray:none;stroke-opacity:1"
       d="M 63.746331,108.37079 C 51.325282,102.08916 50.277558,101.23237 49.864206,97.018537 49.424749,92.538576 49.647839,92.35289 62.922577,86.149571 c 7.428007,-3.471126 13.834062,-6.311138 14.235677,-6.311138 0.401617,0 0.730212,2.49623 0.730212,5.547179 0,5.060955 -0.423941,5.687092 -4.836621,7.143408 -2.660142,0.877926 -5.602646,2.519233 -6.5389,3.647347 -1.413647,1.703342 -0.593578,2.541549 4.836622,4.943583 6.185223,2.73602 6.538899,3.19486 6.538899,8.48314 0,3.07488 -0.159099,5.58426 -0.353553,5.57641 -0.194454,-0.008 -6.399316,-3.07177 -13.788582,-6.80871 z"
       id="path4989"
       inkscape:connector-curvature="0"
       transform="translate(0,698.0315)" />
  </g>
</svg>
