<?xml version="1.0" encoding="UTF-8" standalone="no"?>
<!-- Created with Inkscape (http://www.inkscape.org/) -->

<svg
   xmlns:dc="http://purl.org/dc/elements/1.1/"
   xmlns:cc="http://creativecommons.org/ns#"
   xmlns:rdf="http://www.w3.org/1999/02/22-rdf-syntax-ns#"
   xmlns:svg="http://www.w3.org/2000/svg"
   xmlns="http://www.w3.org/2000/svg"
   xmlns:sodipodi="http://sodipodi.sourceforge.net/DTD/sodipodi-0.dtd"
   xmlns:inkscape="http://www.inkscape.org/namespaces/inkscape"
   width="100mm"
   height="100mm"
   viewBox="0 0 354.33071 354.33071"
   id="svg2"
   version="1.1"
   inkscape:version="0.91 r13725">
  <defs
     id="defs4" />
  <sodipodi:namedview
     id="base"
     pagecolor="#ffffff"
     bordercolor="#666666"
     borderopacity="1.0"
     inkscape:pageopacity="0.0"
     inkscape:pageshadow="2"
     inkscape:zoom="0.98994949"
     inkscape:cx="68.111548"
     inkscape:cy="208.50956"
     inkscape:document-units="px"
     inkscape:current-layer="layer1"
     showgrid="false"
     inkscape:window-width="1920"
     inkscape:window-height="1025"
     inkscape:window-x="0"
     inkscape:window-y="27"
     inkscape:window-maximized="1" />
  <metadata
     id="metadata7">
    <rdf:RDF>
      <cc:Work
         rdf:about="">
        <dc:format>image/svg+xml</dc:format>
        <dc:type
           rdf:resource="http://purl.org/dc/dcmitype/StillImage" />
        <dc:title></dc:title>
      </cc:Work>
    </rdf:RDF>
  </metadata>
  <g
     inkscape:label="Layer 1"
     inkscape:groupmode="layer"
     id="layer1"
     transform="translate(0,-698.0315)">
    <path
       style="fill:#000000;fill-rule:evenodd;stroke:#000000;stroke-width:1px;stroke-linecap:butt;stroke-linejoin:miter;stroke-opacity:1;opacity:0.98"
       d="M 94.957031,26.527344 C 91.29087,27.394953 87.814801,26.807592 85,27.1875 c 16.15491,16.39993 43.46577,29.122987 42.85742,51.429688 -0.3812,13.97771 -14.60455,30.061452 -28.572264,30.712892 C 75.702113,110.42996 66.029011,84.402127 46.070591,59.330357 41.20706,59.124314 13.957395,147.47211 130,152.90234 L 290.33204,337.275 c 27.98948,2.00994 58.47886,-17.86867 57.90818,-50.76561 L 174.28516,114.33008 C 174.82219,33.263727 125.61001,19.273214 94.957031,26.527344 Z M 291.26758,260.38281 c 11.34976,-2.4e-4 20.55071,9.43943 20.55078,21.08399 -8e-5,11.64456 -9.20102,21.08422 -20.55078,21.08398 -11.34976,2.4e-4 -20.5507,-9.43942 -20.55078,-21.08398 7e-5,-11.64456 9.20102,-21.08423 20.55078,-21.08399 z"
       transform="translate(0,698.0315)"
       id="path4149"
       inkscape:connector-curvature="0"
       sodipodi:nodetypes="scsscccccsccccc" />
    <path
       style="fill:#000000;fill-rule:evenodd;stroke:#000000;stroke-width:1px;stroke-linecap:butt;stroke-linejoin:miter;stroke-opacity:1"
       d="m 162.85715,914.50507 -36.42858,31.42858 0,28.21428 L 60,1009.5051 43.928571,992.71936 74.642858,929.50507 110,926.64793 143.47426,891.47461 Z"
       id="path4151"
       inkscape:connector-curvature="0"
       sodipodi:nodetypes="ccccccccc" />
    <path
       style="fill:#000000;fill-rule:evenodd;stroke:#000000;stroke-width:1px;stroke-linecap:butt;stroke-linejoin:miter;stroke-opacity:1"
       d="m 196.74429,812.98926 87.67401,-85.96097 c 0,0 39.19753,-5.02872 53.76723,47.56202 l -92.6055,89.62643 -10.94225,-11.93784 50.13621,-48.85713 c 5.81485,-12.49624 -3.02808,-14.22758 -8.03153,-9.13531 l -49.39502,50.27193 -10.18752,-9.80888 50.8639,-48.1565 c 2.4983,-8.17336 2.84475,-14.39069 -9.45986,-9.10826 l -47.96669,50.24489 z"
       id="path4153"
       inkscape:connector-curvature="0"
       sodipodi:nodetypes="ccccccscccccc" />
  </g>
</svg>
